PathFileType  4	(X/Y/Z) C:\PlaceHolderFilePath\
DataRate	CameraRate	NumFrames	NumMarkers	Units	OrigDataRate	OrigDataStartFrame	OrigNumFrames
  240.0		  240.0		   4		     47	     mm	  240.0	      1491	   2384
Frame#	Time	R_acr			L_acr			back_T			back_mid			back_B			R_asis			L_asis			R_psis			L_psis			R_ilium			L_ilium			R_thigh_TA			R_thigh_TP			R_thigh_BA			R_thigh_BP			R_kneejoint_LA			R_tibtub			R_shank_TA			R_shank_TP			R_shank_BA			R_shank_BP			R_fibula			R_ankle_LA			R_heel_T			R_heel_LA			R_heel_B			R_latfoot			R_met_5			R_toe			L_thigh_TA			L_thigh_TP			L_thigh_BA			L_thigh_BP			L_kneejoint_LA			L_tibtub			L_shank_TA			L_shank_TP			L_shank_BA			L_shank_BP			L_fibula			L_ankle_LA			L_heel_T			L_heel_LA			L_heel_B			L_latfoot			L_met_5			L_toe			
		X1	Y1	Z1	X2	Y2	Z2	X3	Y3	Z3	X4	Y4	Z4	X5	Y5	Z5	X6	Y6	Z6	X7	Y7	Z7	X8	Y8	Z8	X9	Y9	Z9	X10	Y10	Z10	X11	Y11	Z11	X12	Y12	Z12	X13	Y13	Z13	X14	Y14	Z14	X15	Y15	Z15	X16	Y16	Z16	X17	Y17	Z17	X18	Y18	Z18	X19	Y19	Z19	X20	Y20	Z20	X21	Y21	Z21	X22	Y22	Z22	X23	Y23	Z23	X24	Y24	Z24	X25	Y25	Z25	X26	Y26	Z26	X27	Y27	Z27	X28	Y28	Z28	X29	Y29	Z29	X30	Y30	Z30	X31	Y31	Z31	X32	Y32	Z32	X33	Y33	Z33	X34	Y34	Z34	X35	Y35	Z35	X36	Y36	Z36	X37	Y37	Z37	X38	Y38	Z38	X39	Y39	Z39	X40	Y40	Z40	X41	Y41	Z41	X42	Y42	Z42	X43	Y43	Z43	X44	Y44	Z44	X45	Y45	Z45	X46	Y46	Z46	X47	Y47	Z47	

1491	6.208330	838.685000	1621.750000	842.307000	799.397000	1591.542000	510.932000	692.747000	1354.249000	718.805000	700.888000	1286.801000	692.287000	718.134000	1256.863000	758.599000	933.175000	1074.226000	817.192000	931.590000	1088.016000	573.566000	732.476000	1116.688000	749.156000	728.595000	1116.066000	650.449000	735.686000	1080.261000	811.756000	733.578000	1080.175000	589.770000	869.036000	721.845000	851.643000	793.474000	725.272000	856.032000	871.320000	652.041000	840.105000	792.018000	656.207000	847.984000	786.455000	534.428000	831.508000	765.215000	453.560000	789.859000	663.334000	480.285000	838.634000	638.095000	548.938000	833.310000	595.672000	471.530000	831.991000	586.628000	531.761000	829.058000	448.275000	481.261000	797.700000	342.302000	457.807000	790.120000	337.532000	512.593000	741.277000	287.285000	509.654000	763.941000	292.499000	525.273000	722.417000	280.231000	391.716000	800.198000	236.678000	350.793000	809.575000	282.840000	236.838000	763.383000	1027.395000	780.686000	553.512000	960.591000	749.704000	534.341000	1050.429000	715.164000	565.834000	981.192000	682.256000	552.083000	1036.105000	559.429000	575.254000	1089.281000	515.313000	623.747000	1039.585000	423.162000	565.593000	970.579000	412.024000	575.696000	1043.552000	357.628000	578.028000	979.034000	360.934000	581.734000	1031.295000	210.770000	610.705000	1038.713000	111.022000	619.908000	987.516000	95.976000	663.839000	1005.621000	56.281000	629.935000	985.078000	45.379000	665.326000	1102.464000	74.184000	605.521000	1172.553000	55.145000	589.857000	1272.118000	122.049000	648.574000
1492	6.212500	838.036000	1618.008000	842.738000	799.542000	1586.087000	509.718000	692.051000	1350.681000	718.875000	700.747000	1283.082000	691.852000	717.474000	1253.384000	758.717000	932.814000	1070.971000	815.764000	930.124000	1085.857000	572.568000	731.603000	1113.224000	749.751000	727.420000	1112.756000	650.774000	735.100000	1076.455000	812.097000	732.216000	1076.859000	590.138000	873.830000	718.711000	852.555000	798.199000	720.439000	856.368000	877.992000	648.723000	841.450000	798.178000	651.368000	848.656000	795.401000	530.447000	832.863000	774.310000	449.844000	791.140000	672.312000	478.243000	839.425000	648.084000	547.249000	833.764000	604.560000	470.433000	832.632000	596.362000	530.848000	829.488000	457.501000	482.821000	798.258000	351.565000	461.599000	789.835000	347.981000	515.803000	739.666000	297.732000	514.476000	762.730000	303.286000	529.073000	720.580000	288.385000	397.072000	800.782000	244.068000	357.437000	811.322000	287.477000	241.724000	766.724000	1025.048000	778.348000	552.673000	958.354000	746.708000	533.236000	1048.603000	713.022000	564.828000	979.616000	679.360000	550.944000	1035.446000	557.341000	575.665000	1087.872000	512.783000	624.753000	1036.059000	421.483000	566.171000	966.856000	411.708000	576.561000	1038.625000	355.631000	579.101000	974.261000	360.503000	582.624000	1022.873000	209.404000	611.681000	1027.337000	110.091000	620.714000	974.703000	97.160000	664.719000	991.309000	57.223000	630.351000	970.235000	46.713000	665.537000	1088.795000	71.420000	606.720000	1158.207000	49.977000	591.128000	1259.955000	112.678000	650.971000
1493	6.216670	837.287000	1614.126000	843.164000	799.643000	1580.438000	508.565000	691.398000	1347.038000	718.887000	700.356000	1279.228000	692.022000	716.811000	1249.797000	758.963000	932.459000	1067.739000	814.840000	928.962000	1083.667000	571.849000	730.597000	1109.706000	750.182000	726.046000	1109.448000	651.084000	734.244000	1072.766000	812.431000	730.789000	1073.518000	590.466000	878.660000	715.333000	853.292000	802.958000	715.485000	856.514000	884.450000	645.616000	842.669000	804.496000	646.526000	849.212000	804.571000	526.701000	834.060000	783.589000	446.492000	792.204000	681.555000	476.112000	840.348000	658.308000	545.280000	834.341000	613.742000	469.190000	833.352000	606.358000	529.546000	830.002000	467.068000	483.864000	798.574000	361.322000	464.945000	789.535000	358.687000	518.378000	738.314000	308.605000	518.521000	761.511000	314.231000	532.250000	719.076000	297.152000	402.030000	801.612000	252.128000	363.392000	813.127000	292.876000	246.080000	770.172000	1022.283000	775.682000	550.790000	955.426000	743.903000	532.530000	1046.147000	710.491000	563.051000	976.997000	676.712000	550.186000	1035.147000	555.378000	576.066000	1086.536000	510.543000	626.117000	1033.373000	419.836000	567.030000	963.896000	411.840000	577.030000	1034.500000	353.934000	580.023000	970.236000	360.266000	583.416000	1014.921000	208.102000	612.670000	1016.100000	109.658000	621.411000	962.063000	98.397000	665.913000	977.032000	58.609000	631.009000	955.268000	48.457000	665.916000	1075.151000	69.787000	608.173000	1144.042000	45.669000	592.522000	1247.958000	102.554000	654.272000
1494	6.220830	836.342000	1610.410000	843.637000	799.954000	1574.322000	507.915000	690.817000	1343.275000	718.988000	699.838000	1275.517000	692.166000	716.094000	1246.093000	759.292000	931.978000	1064.402000	813.750000	927.029000	1081.095000	571.028000	729.383000	1106.191000	750.688000	724.452000	1106.062000	651.398000	733.273000	1068.935000	812.732000	729.246000	1070.189000	590.727000	883.641000	712.271000	854.090000	807.894000	710.756000	856.915000	891.029000	642.623000	843.558000	810.985000	641.841000	849.847000	813.995000	523.154000	835.253000	793.221000	443.339000	793.251000	691.187000	473.745000	841.044000	668.667000	543.215000	835.077000	623.225000	467.588000	833.950000	616.542000	528.118000	830.681000	477.007000	484.475000	798.809000	371.469000	467.496000	789.309000	369.613000	520.454000	736.952000	319.721000	521.885000	760.447000	325.339000	534.825000	717.777000	306.546000	406.248000	802.433000	260.932000	368.684000	814.884000	299.221000	249.831000	773.670000	1019.833000	772.708000	547.856000	952.045000	741.326000	532.121000	1043.538000	707.449000	560.204000	973.816000	674.225000	549.774000	1034.983000	553.466000	576.582000	1085.294000	508.560000	627.345000	1031.506000	418.142000	568.106000	961.610000	411.850000	577.272000	1030.926000	352.400000	581.011000	966.756000	360.194000	583.755000	1007.181000	207.036000	613.657000	1004.721000	109.555000	622.884000	948.569000	99.975000	667.412000	962.424000	60.386000	631.887000	940.155000	50.061000	666.486000	1061.184000	69.258000	610.131000	1129.406000	45.108000	593.441000	1236.549000	92.360000	659.405000
